<?xml version="1.0" encoding="UTF-8" standalone="no"?>
<!-- Created with Inkscape (http://www.inkscape.org/) -->

<svg
   version="1.1"
   id="svg2"
   width="122.66653"
   height="49.772743"
   viewBox="0 0 122.66653 49.772744"
   sodipodi:docname="ABSTRACT-PIANO.svg"
   xmlns:inkscape="http://www.inkscape.org/namespaces/inkscape"
   xmlns:sodipodi="http://sodipodi.sourceforge.net/DTD/sodipodi-0.dtd"
   xmlns="http://www.w3.org/2000/svg"
   xmlns:svg="http://www.w3.org/2000/svg">
  <defs
     id="defs6" />
  <sodipodi:namedview
     id="namedview4"
     pagecolor="#ffffff"
     bordercolor="#000000"
     borderopacity="0.25"
     inkscape:showpageshadow="2"
     inkscape:pageopacity="0.0"
     inkscape:pagecheckerboard="0"
     inkscape:deskcolor="#d1d1d1"
     showgrid="false"
     inkscape:export-bgcolor="#edf2f400" />
  <g
     id="g8"
     inkscape:groupmode="layer"
     inkscape:label="ink_ext_XXXXXX"
     transform="matrix(1.3333333,0,0,-1.3333333,-38.666792,91.55526)">
    <g
       id="g10"
       transform="scale(0.1)">
      <path
         d="m 1125.42,466.715 c 17.93,47.781 46.03,101.84 68.74,148.543 6.94,52.508 -114.89,54.129 -142.32,54.465 -84.289,-4.66 -166.774,-20.043 -239.344,-65.801 l 1.82,1.683 C 752.117,547.156 663.176,525.5 580.227,520.434 511.898,516.316 429.555,513.551 380.77,458.613 c 25.468,59.528 141.574,70.528 198.375,75.86 76.617,7.152 162.398,29.222 219.335,84.226 42.719,41.301 154.446,62.563 215.63,67.082 42.99,3.172 196.83,1.215 193.25,-65.73 -0.94,-16.738 -68.8,-132.754 -81.94,-153.336"
         style="fill:#ffffff;fill-opacity:1;fill-rule:evenodd;stroke:none"
         id="path14" />
      <path
         d="m 1197.39,322.555 c -25.67,38.808 -53.5,79.3 -76.41,119.121 30.59,-37.727 60.24,-81.66 88.27,-121.688 1.35,-1.957 0.81,-4.59 -1.08,-5.933 -1.01,-0.61 -2.15,-0.813 -3.23,-0.61 h -44.07 -1.55 -44 -1.62 -44 -1.55 -44 -1.55 -44.002 -1.618 -44 -1.55 -44.004 -1.547 -44.004 l -0.199,-0.066 -1.418,0.066 h -44.004 l -0.469,-0.066 -1.078,0.066 h -44 l -0.809,-0.066 -0.742,0.066 h -44 l -1.078,-0.066 -0.543,0.066 h -44 l -1.347,-0.066 -0.204,0.066 h -44 -1.546 -44.004 -1.618 -43.867 -1.617 -44.004 -1.547 -44.004 -1.547 -44.003 -1.618 -44 -1.55 -44 c -1.079,-0.203 -2.227,0 -3.168,0.676 -1.953,1.277 -2.493,3.981 -1.145,5.867 28.301,40.157 57.547,83.688 88.137,121.688 -22.574,-39.613 -50.606,-80.582 -76.281,-119.121 h 35.382 c 9.633,14.441 17.45,26.324 28.301,39.687 h -6.34 l -2.355,0.672 c -1.953,1.285 -2.563,3.918 -1.281,5.871 l 50.804,72.891 h 17.321 c -12.942,-27.738 -26.211,-50.821 -41.243,-77.344 -0.804,-1.348 -2.218,-2.09 -3.636,-2.09 H 367.969 C 361.5,347.73 354.961,335.984 347.418,322.555 h 35.98 c 8.555,14.375 15.629,26.254 25.469,39.687 h -6.601 l -2.161,0.535 c -2.019,1.149 -2.761,3.782 -1.613,5.809 l 45.821,73.09 h 17.179 c -11.047,-27.606 -22.703,-50.684 -35.847,-77.141 -0.805,-1.484 -2.29,-2.293 -3.836,-2.293 h -11.325 c -5.523,-14.582 -11.25,-26.121 -17.921,-39.687 h 36.121 c 19.402,39.215 39.48,81.797 61.449,119.121 C 475.512,402.598 455.699,361.16 437.91,322.555 h 36.254 c 6.535,14.441 11.793,26.054 19.813,39.687 h -7.215 l -1.75,0.336 c -2.157,0.942 -3.164,3.442 -2.223,5.602 l 35.711,73.496 h 17.32 c -7.48,-27.129 -16.039,-50.348 -25.472,-76.735 -0.676,-1.687 -2.36,-2.699 -4.043,-2.699 h -10.782 c -3.636,-14.445 -7.812,-26.054 -12.668,-39.687 h 36.657 c 5.527,14.441 9.906,25.918 17.051,39.687 h -7.547 l -1.551,0.27 c -2.227,0.808 -3.367,3.234 -2.563,5.468 l 30.661,73.696 h 17.32 c -5.594,-27.266 -12.469,-49.942 -20.285,-76.465 -0.606,-1.82 -2.289,-2.969 -4.114,-2.969 h -10.441 c -2.695,-14.445 -6.066,-25.988 -10.039,-39.687 h 36.723 c 4.586,14.308 8.222,25.918 14.289,39.687 h -7.821 l -1.277,0.199 c -2.297,0.672 -3.574,3.039 -2.902,5.262 l 25.675,73.973 h 17.321 c -3.778,-27.129 -9.098,-49.742 -15.094,-76.266 -0.543,-1.89 -2.297,-3.168 -4.25,-3.168 h -10.176 c -1.746,-14.445 -4.308,-25.851 -7.41,-39.687 h 36.859 c 9.028,40.429 17.586,78.965 28.5,119.121 -5.453,-40.899 -12.527,-78.899 -20.007,-119.121 h 36.793 c 6.261,40.429 12.058,78.758 20.343,119.121 -2.695,-40.699 -7.207,-78.899 -11.922,-119.121 h 36.993 c 1.547,14.175 2.832,25.582 5.996,39.687 -1.887,0 -4.114,0 -8.692,0 h -0.406 c -2.359,0.199 -4.109,2.293 -3.906,4.59 l 10.445,74.844 h 17.313 c 1.683,-26.457 0.949,-49 0.406,-75.387 -0.133,-2.363 -2.09,-4.117 -4.449,-4.047 -5.118,0 -7.344,0 -9.297,0 1.281,-14.308 0.941,-25.648 0.676,-39.687 h 37.128 c 0.672,14.105 1.149,25.511 3.368,39.687 h -9.094 -0.141 c -2.355,0.067 -4.172,1.957 -4.172,4.317 l 5.321,75.117 h 17.32 c 3.5,-26.254 4.313,-48.793 5.59,-75.117 0,-2.36 -1.883,-4.25 -4.242,-4.317 h -0.137 -9.027 c 2.152,-14.246 2.625,-25.582 3.3,-39.687 H 791 c -2.02,40.293 -4.043,78.492 -4.043,119.121 5.594,-40.426 8.898,-78.762 12.398,-119.121 h 36.86 c -4.785,40.156 -9.297,78.492 -12.195,119.121 8.421,-40.426 14.285,-78.625 20.621,-119.121 h 36.922 c -2.223,13.906 -4.043,25.312 -4.782,39.687 h -9.906 c -2.02,0 -3.906,1.414 -4.312,3.504 l -10.04,75.93 h 17.317 c 8.758,-25.578 14.219,-48.192 20.758,-74.238 0.535,-2.297 -0.95,-4.59 -3.239,-5.067 l -0.941,-0.129 h -8.227 c 5.192,-13.972 7.957,-25.379 11.594,-39.687 h 36.93 c -3.238,13.836 -5.731,25.175 -7.414,39.687 h -10.176 c -1.891,0 -3.641,1.278 -4.18,3.168 l -15.297,76.266 h 17.321 c 10.375,-25.309 17.519,-48.055 25.875,-73.973 0.672,-2.223 -0.676,-4.59 -2.899,-5.262 l -1.277,-0.199 h -7.953 c 6.062,-13.769 9.707,-25.445 14.351,-39.687 h 36.864 c -4.114,13.769 -7.414,25.175 -10.11,39.687 h -10.449 c -1.816,0 -3.566,1.149 -4.176,2.969 l -20.418,76.465 h 17.321 c 12.058,-25.11 20.75,-47.922 30.859,-73.696 0.809,-2.234 -0.332,-4.66 -2.559,-5.468 l -1.546,-0.27 h -7.485 c 6.942,-13.703 11.391,-25.379 17.047,-39.687 h 36.456 c -15.57,39.886 -30.522,78.289 -44.472,119.121 19.54,-39.957 36.052,-78.492 53.502,-119.121 h 36.25 c -5.86,13.633 -10.71,25.105 -15.29,39.687 h -10.99 c -1.61,0 -3.23,0.871 -3.97,2.492 l -30.86,76.942 h 17.25 c 15.56,-24.774 27.35,-47.516 40.97,-73.297 1.07,-2.09 0.2,-4.652 -1.89,-5.668 l -2.02,-0.469 h -6.94 c 8.89,-13.504 15.09,-25.379 22.7,-39.687 h 36.19 c -6.74,13.566 -12.4,25.039 -17.93,39.687 h -11.31 c -1.56,0 -3.04,0.809 -3.85,2.293 l -36.05,77.141 h 17.32 c 17.05,-24.567 30.59,-47.516 45.89,-73.09 1.14,-2.027 0.4,-4.66 -1.62,-5.809 l -2.15,-0.535 h -6.61 c 9.77,-13.433 16.92,-25.379 25.54,-39.687 h 35.72 c -23.12,38.738 -48.32,79.508 -68.47,119.121 27.29,-37.051 53.37,-79.906 78.24,-119.121 h 35.37"
         style="fill:#ffffff;fill-opacity:1;fill-rule:evenodd;stroke:none"
         id="path16" />
    </g>
  </g>
</svg>
